<?xml version="1.0" encoding="UTF-8"?>
<svg xmlns="http://www.w3.org/2000/svg" xmlns:xlink="http://www.w3.org/1999/xlink" width="22px" height="22px" viewBox="0 0 22 22" version="1.1">
<g id="surface1">
<path style=" stroke:none;fill-rule:nonzero;fill:rgb(5.098039%,79.215686%,94.117647%);fill-opacity:1;" d="M 8.289062 4.242188 C 7.085938 5.707031 6.394531 7.433594 6.394531 9.28125 C 6.394531 13.492188 9.992188 17.074219 15.011719 18.378906 C 14.300781 18.5 13.5625 18.5625 12.800781 18.5625 C 7.253906 18.5625 2.75 15.179688 2.75 11 C 2.75 8.039062 5.007812 5.484375 8.296875 4.242188 Z M 11.847656 1.40625 C 5.21875 1.769531 0 5.925781 0 11 C 0 16.316406 5.730469 20.625 12.804688 20.625 C 15.542969 20.625 18.074219 19.980469 20.160156 18.878906 C 20.269531 18.824219 20.371094 18.765625 20.476562 18.707031 C 20.75 18.554688 21.015625 18.390625 21.273438 18.21875 C 21.425781 18.117188 21.574219 18.011719 21.726562 17.90625 C 22.011719 17.695312 22.085938 17.367188 21.902344 17.101562 C 21.71875 16.835938 21.324219 16.683594 20.929688 16.734375 C 20.714844 16.761719 20.503906 16.789062 20.292969 16.804688 C 20.007812 16.828125 19.714844 16.84375 19.417969 16.847656 C 19.347656 16.847656 19.273438 16.847656 19.203125 16.847656 C 19.199219 16.847656 19.191406 16.847656 19.1875 16.847656 C 13.640625 16.839844 9.148438 13.457031 9.148438 9.285156 C 9.148438 6.929688 10.574219 4.828125 12.820312 3.441406 C 12.878906 3.402344 12.941406 3.367188 13.003906 3.332031 C 13.234375 3.191406 13.476562 3.0625 13.722656 2.945312 C 13.898438 2.859375 14.082031 2.773438 14.269531 2.695312 C 14.621094 2.542969 14.796875 2.242188 14.710938 1.949219 C 14.625 1.660156 14.292969 1.441406 13.894531 1.414062 C 13.6875 1.402344 13.488281 1.390625 13.28125 1.386719 C 13.125 1.382812 12.964844 1.382812 12.808594 1.382812 C 12.621094 1.382812 12.4375 1.386719 12.25 1.390625 C 12.117188 1.398438 11.984375 1.402344 11.855469 1.410156 Z M 11.847656 1.40625 "/>
</g>
</svg>
